<?xml version="1.0" encoding="utf-8"?>
<!-- Generator: Adobe Illustrator 24.1.0, SVG Export Plug-In . SVG Version: 6.00 Build 0)  -->
<svg version="1.1" id="圖層_1" xmlns="http://www.w3.org/2000/svg" xmlns:xlink="http://www.w3.org/1999/xlink" x="0px" y="0px"
	 viewBox="0 0 1054.87 289.13" style="enable-background:new 0 0 1054.87 289.13;" xml:space="preserve">
<style type="text/css">
	.st0{fill:#96938D;}
	.st1{fill:#85827C;}
</style>
<g>
	<path class="st0" d="M142.59,269.81c0.91,1.26,0.28,2.7,0.47,4.05c-0.17,0-0.35,0-0.52,0
		C142.56,272.51,142.57,271.16,142.59,269.81z"/>
	<g>
		<path class="st1" d="M20.88,148.45c0-67.45,54.36-122.19,121.66-122.81c0-0.88,0-1.76,0-2.64c-16.84-0.38-32.92,3.17-48.28,9.85
			C40.43,56.27,9.39,114.17,21.43,173.21c8.51,41.71,32.65,71.87,71.25,90.03c15.71,7.39,32.42,10.93,49.86,10.62
			c0.01-0.86,0.02-1.73,0.03-2.59C75.26,270.65,20.88,215.91,20.88,148.45z"/>
		<path class="st1" d="M266.38,126.96c-8.53-46.77-36-78.8-80.09-96.37c-13.79-5.5-28.31-8.02-43.24-7.6
			c-0.14,0.86,0.17,1.79-0.04,2.64c0.23,0,0.46-0.01,0.7-0.01c67.84,0,122.83,54.99,122.83,122.83s-54.99,122.83-122.83,122.83
			c-0.21,0-0.42-0.01-0.63-0.01c0.06,0.85-0.15,1.74-0.03,2.59c5.43,0.3,10.81-0.18,16.18-0.91c31.14-4.27,57.35-18.06,77.89-41.75
			C263.16,201.17,273.51,166.07,266.38,126.96z"/>
		<path class="st1" d="M66.82,55.06C29.49,87.88,15.49,129.4,27.18,177.5c11.54,47.48,42.74,77.24,90.31,89.35
			c6.07,1.55,13.05-1.74,16.49-7.6c-2.79-0.32-5.52-0.53-8.21-0.96c-23.44-3.79-44.06-13.52-60.89-30.33
			c-28.31-28.27-38.83-62.37-31.23-101.65c4.49-23.19,16.04-42.73,33.49-58.62c20.15-18.36,43.96-28.08,71.22-29.23
			c4.43-0.19,4.3-0.08,4.48,4.4c0.09,2.29-0.61,2.94-2.88,2.96c-12.37,0.11-24.26,2.71-35.78,7.15
			c-37.51,14.45-64.2,51.58-65.53,91.35c-0.86,25.72,6.38,48.92,22.68,68.88c19.93,24.42,45.9,37.3,77.44,38.87
			c1.92,0.1,3.02-0.56,4.12-2.05c5.24-7.07,8.8-14.93,10.63-23.48c5.21-24.4,9.29-49.03,14.01-73.53c0.89-4.61,0.79-4.57,5.48-4.57
			c1.6,0,2.18,0.25,1.83,2.07c-4.46,23.45-8.86,46.91-13.23,70.38c-3.53,18.97-12.18,34.91-27.57,46.89
			c-0.37,0.29-0.89,0.5-0.83,1.12c0.13,0.1,0.25,0.28,0.39,0.28c2.99,0.17,5.98,0.32,8.97,0.48v0c1.33-0.06,2.66-0.15,3.99-0.18
			c20.11-0.55,38.87-5.92,56.38-15.78c1.49-0.84,2.35-1.85,2.67-3.59c2.49-13.58,5.03-27.14,7.66-40.69
			c0.29-1.51,0.06-2.75-0.48-4.09c-7.39-18.09-14.76-36.19-22.14-54.29c-1.04-2.56-1.03-2.56,1.7-2.58c4.19-0.02,4.2-0.03,5.78,3.92
			c4.34,10.89,8.67,21.79,13.01,32.68c2.17,5.44,4.37,10.87,6.66,16.57c0.71-0.84,1.21-1.37,1.66-1.96
			c12.28-16.08,24.59-32.13,36.78-48.28c1.6-2.12,3.18-3.47,5.93-2.94c1.59,0.31,2-0.47,1.89-1.97c-0.26-3.48-0.23-7-0.62-10.47
			c-2.15-19.6-8.4-37.78-19.38-54.22c-16.39-24.54-38.73-41.13-66.99-49.67c-11.23-3.39-22.76-4.83-34.48-4.93
			c-3.74,0.21-7.49,0.29-11.22,0.64C107,30.21,85.13,38.97,66.82,55.06z M143.95,146.69c-0.19,1.17,0.47,2.46-0.51,3.52
			c0-1.17,0-2.34,0-3.51C143.61,146.7,143.78,146.7,143.95,146.69z"/>
		<path class="st1" d="M142.55,27.22c0-0.23,0-0.47,0-0.7c0.26-0.28,0.4-0.58,0.47-0.88c-0.16,0-0.31,0-0.47,0.01
			c0,0.29,0,0.58,0,0.88C142.55,26.75,142.55,26.98,142.55,27.22z"/>
		<path class="st1" d="M249.8,205.36c8.86-16.58,13.49-34.29,14.14-53.19c-1.01,0.28-1.28,0.94-1.67,1.44
			c-12.97,16.8-25.89,33.63-38.92,50.39c-2.09,2.69-3.7,5.4-4.04,8.88c-0.28,2.8-1.02,5.55-1.54,8.33
			c-1.59,8.48-3.18,16.96-4.9,26.12C228.78,235.81,240.91,222,249.8,205.36z"/>
		<path class="st1" d="M142.57,271.27c0.17,0,0.34,0.01,0.51,0.01c-0.03-0.5-0.16-0.99-0.5-1.46
			C142.58,270.3,142.58,270.78,142.57,271.27z"/>
		<path class="st1" d="M142.57,269.74c-0.01-0.04-0.02-0.07-0.02-0.07l0,0C142.55,269.67,142.56,269.7,142.57,269.74z"/>
	</g>
</g>
<g>
	<g>
		<path class="st1" d="M363.76,81.88c-0.61,0-2.95-0.03-7.04-0.08c-4.08-0.05-9.1-0.08-15.04-0.08c-2.69,0-5.15,0.01-7.39,0.03
			c-2.24,0.02-4.14,0.03-5.72,0.03c0,4.05-0.04,8.43-0.11,13.16c-0.07,4.73-0.11,8.88-0.11,12.46c0.43,0,1.67,0.01,3.71,0.03
			c2.04,0.02,3.99,0.03,5.85,0.03c5.87,0,11.41-0.03,16.62-0.08c5.21-0.05,8.1-0.08,8.67-0.08v7.41c-0.68,0-3.98-0.03-9.91-0.08
			c-5.93-0.05-11.23-0.08-15.92-0.08c-1.47,0-3.22,0.01-5.26,0.03c-2.04,0.02-3.29,0.03-3.76,0.03c0,6.34,0.03,12.33,0.08,17.97
			c0.05,5.64,0.1,10.18,0.13,13.62h-8.86c0.07-2.15,0.13-5.97,0.19-11.47c0.05-5.5,0.08-13.4,0.08-23.71
			c0-4.05-0.02-9.38-0.05-16.01c-0.04-6.62-0.11-13.48-0.21-20.57c2.61,0,5.81,0.02,9.59,0.05c3.78,0.04,7.76,0.05,11.95,0.05
			c6.27,0,11.44-0.02,15.52-0.05c4.08-0.04,6.41-0.05,6.98-0.05V81.88z"/>
		<path class="st1" d="M427.46,119c0,4.15-0.74,8.13-2.23,11.92c-1.49,3.8-3.62,7.04-6.42,9.72c-2.36,2.26-4.99,3.97-7.87,5.16
			c-2.88,1.18-6.15,1.77-9.8,1.77c-3.44,0-6.66-0.58-9.67-1.75c-3.01-1.16-5.69-2.87-8.06-5.13c-2.72-2.61-4.83-5.84-6.31-9.67
			c-1.49-3.83-2.23-7.88-2.23-12.14c0-4.12,0.63-7.9,1.91-11.36c1.27-3.46,3.25-6.56,5.94-9.32c2.4-2.51,5.19-4.43,8.38-5.77
			c3.19-1.34,6.55-2.01,10.1-2.01c3.72,0,7.1,0.62,10.12,1.85c3.03,1.23,5.72,3.09,8.08,5.56c2.72,2.83,4.74,6.01,6.07,9.53
			C426.8,110.89,427.46,114.77,427.46,119z M418.86,119.37c0-3.37-0.55-6.64-1.64-9.83c-1.09-3.19-2.78-5.87-5.08-8.06
			c-1.4-1.36-3.05-2.41-4.97-3.14c-1.92-0.73-3.91-1.1-5.99-1.1c-2.47,0-4.62,0.39-6.45,1.18c-1.83,0.79-3.54,2.02-5.16,3.71
			c-1.9,1.93-3.39,4.4-4.49,7.41c-1.09,3.01-1.64,6.12-1.64,9.35c0,3.65,0.55,7.01,1.67,10.07c1.11,3.06,2.9,5.7,5.37,7.92
			c1.4,1.25,3.01,2.21,4.83,2.87c1.83,0.66,3.76,0.99,5.8,0.99c2.26,0,4.36-0.39,6.31-1.18c1.95-0.79,3.66-1.93,5.13-3.44
			c2.04-2.08,3.6-4.58,4.67-7.52C418.33,125.68,418.86,122.6,418.86,119.37z"/>
		<path class="st1" d="M479.61,115.56c0,8.88-0.02,16.11-0.05,21.7c-0.04,5.59-0.05,8.59-0.05,9.02c-0.36,0.04-2.02,0.17-5,0.4
			c-2.97,0.23-6.8,0.35-11.49,0.35c-2.94,0-5.89-0.27-8.86-0.81c-2.97-0.54-5.53-1.31-7.68-2.31c-2.87-1.32-5.18-3.13-6.96-5.42
			c-1.77-2.29-2.66-5.05-2.66-8.27c0-3.4,1.05-6.35,3.14-8.83c2.09-2.49,5-4.5,8.73-6.04c2.33-0.97,5.43-1.83,9.32-2.61
			c3.88-0.77,8.32-1.35,13.29-1.75c-0.21-2.79-0.91-5.08-2.09-6.88c-1.18-1.79-2.92-3.15-5.21-4.08c-1.58-0.64-3.33-1.1-5.26-1.37
			c-1.93-0.27-4.19-0.4-6.77-0.4c-1.61,0-2.98,0.04-4.11,0.11c-1.13,0.07-2.66,0.16-4.59,0.27l0.86-7.14c0.54-0.04,1.6-0.1,3.2-0.19
			c1.59-0.09,3.77-0.13,6.53-0.13c4.22,0,7.99,0.44,11.31,1.32c3.31,0.88,6.06,2.3,8.25,4.27c2.04,1.86,3.58,4.16,4.62,6.9
			C479.09,106.4,479.61,110.37,479.61,115.56z M471.39,128.5c0-1.22,0-2.76,0-4.62c0-1.86-0.02-4.01-0.05-6.45
			c-1.58,0.07-4.33,0.38-8.27,0.94c-3.94,0.55-7.25,1.35-9.94,2.39c-2.01,0.75-3.79,1.88-5.34,3.38s-2.34,3.37-2.34,5.59
			c0,2.44,0.66,4.4,1.99,5.88c1.32,1.49,3.13,2.62,5.42,3.41c1.75,0.61,3.7,1.05,5.83,1.32c2.13,0.27,4.38,0.4,6.74,0.4
			c0.72,0,1.59-0.02,2.63-0.05c1.04-0.04,2.13-0.07,3.28-0.11c0-0.25,0.01-1.43,0.03-3.54C471.38,134.93,471.39,132.08,471.39,128.5
			z"/>
		<path class="st1" d="M575.81,146.17h-8.49c0.04-0.39,0.08-2.9,0.13-7.52s0.08-8.97,0.08-13.05c0-1.61-0.01-4.25-0.03-7.92
			c-0.02-3.67-0.04-6.42-0.08-8.24c-0.11-4.3-0.96-7.27-2.55-8.92c-1.59-1.65-4.05-2.47-7.38-2.47c-1.97,0-4.31,0.49-7.01,1.46
			c-2.7,0.97-5.76,2.49-9.16,4.55c0,0.18,0.01,0.54,0.03,1.07c0.02,0.54,0.03,1.23,0.03,2.09c0,2.9-0.02,5.84-0.05,8.82
			c-0.04,2.99-0.05,5.84-0.05,8.56c0,5.94,0.04,10.93,0.13,14.97c0.09,4.04,0.13,6.24,0.13,6.6h-8.49c0-0.39,0.04-2.56,0.11-6.5
			c0.07-3.94,0.11-8.59,0.11-13.96c0-1.79-0.01-4.5-0.03-8.14c-0.02-3.63-0.04-6.31-0.08-8.03c-0.04-1.58-0.18-3.08-0.43-4.51
			c-0.25-1.43-0.72-2.65-1.4-3.65c-0.75-1.11-1.72-1.94-2.9-2.5c-1.18-0.55-2.87-0.83-5.05-0.83c-2.01,0-4.35,0.59-7.04,1.76
			c-2.69,1.17-5.77,2.86-9.24,5.06c0,0.61-0.02,2.89-0.05,6.84c-0.04,3.95-0.05,7.18-0.05,9.68c0,4.26,0.04,9.36,0.13,15.31
			c0.09,5.96,0.13,9.11,0.13,9.47h-8.49c0-0.29,0.04-2.37,0.11-6.26c0.07-3.88,0.11-10.32,0.11-19.31c0-2.94-0.01-6.89-0.03-11.87
			c-0.02-4.98-0.08-10.62-0.19-16.92h8.38L507.11,98l0.05,0.05c2.4-1.72,5.42-3.42,9.05-5.1c3.63-1.68,6.85-2.52,9.64-2.52
			c3.51,0,6.44,0.73,8.78,2.2c2.34,1.47,4.02,3.33,5.02,5.59h0.11c4.12-2.54,7.9-4.48,11.36-5.8c3.46-1.32,6.4-1.99,8.84-1.99
			c4.94,0,8.8,1.44,11.57,4.32c2.77,2.88,4.16,6.78,4.16,11.68c0,3.8-0.03,6.99-0.08,9.59c-0.05,2.6-0.08,5.34-0.08,8.24
			c0,6.02,0.04,11.1,0.13,15.25C575.76,143.67,575.81,145.89,575.81,146.17z"/>
		<path class="st1" d="M645.47,139.57c-0.04,0.32-0.13,1.23-0.3,2.71c-0.16,1.49-0.31,3.11-0.46,4.86c-0.29,0-0.6,0-0.94,0
			c-0.34,0-0.65,0-0.94,0c-8.74,0-16.51-1.1-23.31-3.3c-6.8-2.2-12.39-5.4-16.76-9.59c-3.04-2.9-5.45-6.37-7.22-10.42
			c-1.77-4.05-2.66-8.67-2.66-13.86c0-4.65,0.88-8.91,2.63-12.76c1.75-3.85,4.05-7.21,6.88-10.07c4.12-4.15,9.65-7.45,16.6-9.88
			c6.95-2.43,14.38-3.65,22.29-3.65c0.39,0,0.84,0,1.34,0c0.5,0,0.86,0,1.07,0c0.04,0.64,0.11,1.67,0.21,3.09
			c0.11,1.41,0.23,2.95,0.38,4.59c-0.36,0-0.66,0-0.92,0s-0.56,0-0.91,0c-4.48,0-9.12,0.49-13.93,1.48
			c-4.8,0.99-8.95,2.46-12.42,4.43c-4.52,2.58-8,5.88-10.43,9.91c-2.44,4.03-3.66,8.37-3.66,13.02c0,4.83,1.09,9.23,3.28,13.19
			c2.19,3.96,5.65,7.28,10.38,9.96c3.87,2.22,8.2,3.83,12.99,4.83c4.79,1,9.54,1.5,14.28,1.5c0.21,0,0.56,0,1.02,0
			C644.43,139.62,644.93,139.6,645.47,139.57z"/>
		<path class="st1" d="M690.05,98.16c-1.97,0.47-4.99,1.45-9.05,2.95c-4.06,1.5-8.75,3.51-14.04,6.02c0,0.39-0.02,2.19-0.05,5.4
			c-0.04,3.21-0.05,6.19-0.05,8.94c0,4.23,0.04,9.24,0.13,15.04c0.09,5.8,0.13,9.02,0.13,9.67h-8.49c0-0.61,0.04-2.61,0.11-6.02
			c0.07-3.4,0.11-9.22,0.11-17.46c0-3.33-0.02-7.98-0.05-13.96c-0.04-5.98-0.09-11.62-0.16-16.92h8.33v8.16l0.05,0.05
			c4.05-2.29,8.04-4.28,11.98-5.96c3.94-1.68,7.09-2.83,9.45-3.44L690.05,98.16z"/>
		<path class="st1" d="M738.28,115.56c0,8.88-0.02,16.11-0.05,21.7c-0.04,5.59-0.05,8.59-0.05,9.02c-0.36,0.04-2.02,0.17-5,0.4
			c-2.97,0.23-6.8,0.35-11.49,0.35c-2.94,0-5.89-0.27-8.86-0.81c-2.97-0.54-5.53-1.31-7.68-2.31c-2.87-1.32-5.18-3.13-6.96-5.42
			c-1.77-2.29-2.66-5.05-2.66-8.27c0-3.4,1.05-6.35,3.14-8.83c2.09-2.49,5-4.5,8.73-6.04c2.33-0.97,5.43-1.83,9.32-2.61
			c3.88-0.77,8.32-1.35,13.29-1.75c-0.21-2.79-0.91-5.08-2.09-6.88c-1.18-1.79-2.92-3.15-5.21-4.08c-1.58-0.64-3.33-1.1-5.26-1.37
			c-1.93-0.27-4.19-0.4-6.77-0.4c-1.61,0-2.98,0.04-4.11,0.11c-1.13,0.07-2.66,0.16-4.59,0.27l0.86-7.14c0.54-0.04,1.6-0.1,3.2-0.19
			c1.59-0.09,3.77-0.13,6.53-0.13c4.22,0,7.99,0.44,11.31,1.32c3.31,0.88,6.06,2.3,8.25,4.27c2.04,1.86,3.58,4.16,4.62,6.9
			C737.76,106.4,738.28,110.37,738.28,115.56z M730.07,128.5c0-1.22,0-2.76,0-4.62c0-1.86-0.02-4.01-0.05-6.45
			c-1.58,0.07-4.33,0.38-8.27,0.94c-3.94,0.55-7.25,1.35-9.94,2.39c-2.01,0.75-3.79,1.88-5.34,3.38s-2.34,3.37-2.34,5.59
			c0,2.44,0.66,4.4,1.99,5.88c1.32,1.49,3.13,2.62,5.42,3.41c1.75,0.61,3.7,1.05,5.83,1.32c2.13,0.27,4.38,0.4,6.74,0.4
			c0.72,0,1.59-0.02,2.63-0.05c1.04-0.04,2.13-0.07,3.28-0.11c0-0.25,0.01-1.43,0.03-3.54C730.06,134.93,730.07,132.08,730.07,128.5
			z"/>
		<path class="st1" d="M788.56,74.31c-0.18,0-0.57,0-1.18,0c-0.61,0-1.11,0-1.5,0c-3.37,0-6.02,0.3-7.95,0.91
			c-1.93,0.61-3.67,1.64-5.21,3.11c-1.18,1.11-2.09,2.63-2.71,4.58c-0.63,1.95-0.94,4.11-0.94,6.51v2.41h18.26v6.28h-18.26
			c0,11.6,0.03,22.37,0.08,32.31c0.05,9.94,0.08,15.19,0.08,15.76h-8.49c0-0.57,0.04-5.61,0.11-15.12
			c0.07-9.51,0.11-20.49,0.11-32.95h-10.58v-6.28h10.58v-2.63c0-3.14,0.41-5.96,1.24-8.44c0.82-2.48,2.27-4.81,4.35-6.99
			c1.79-1.86,4.17-3.38,7.14-4.55c2.97-1.18,6.62-1.77,10.96-1.77c0.46,0,1.01,0,1.64,0c0.63,0,1.05,0,1.26,0L788.56,74.31z"/>
		<path class="st1" d="M827.39,139.51l-0.97,6.82c-0.25,0.04-0.87,0.07-1.85,0.11c-0.99,0.04-1.83,0.05-2.55,0.05
			c-7.34,0-12.89-1.53-16.65-4.59c-3.76-3.06-5.64-7.76-5.64-14.1c0-3.97,0.03-8.24,0.08-12.78c0.05-4.55,0.08-10.19,0.08-16.92
			h-9.02v-6.28h9.51V79.09h7.79v12.73h19.23v6.28h-19.23c0,0.75-0.03,2.99-0.08,6.71c-0.05,3.72-0.08,6.48-0.08,8.27
			c0,1.5,0,3.35,0,5.53c0,2.18,0,4.78,0,7.79c0,4.66,1.25,8.01,3.76,10.07c2.51,2.06,6.37,3.09,11.6,3.09
			c0.64,0,1.41-0.01,2.31-0.03C826.57,139.52,827.14,139.51,827.39,139.51z"/>
		<path class="st1" d="M340.01,214.57c-0.02,0.18-0.07,0.67-0.16,1.48s-0.17,1.69-0.25,2.65c-0.16,0-0.33,0-0.51,0
			c-0.19,0-0.36,0-0.51,0c-4.77,0-9-0.6-12.71-1.8c-3.71-1.2-6.76-2.94-9.14-5.23c-1.66-1.58-2.97-3.48-3.94-5.68
			s-1.45-4.73-1.45-7.56c0-2.54,0.48-4.86,1.44-6.96c0.96-2.1,2.21-3.93,3.75-5.49c2.25-2.27,5.26-4.06,9.05-5.39
			c3.79-1.33,7.84-1.99,12.16-1.99c0.21,0,0.46,0,0.73,0c0.27,0,0.47,0,0.59,0c0.02,0.35,0.06,0.91,0.12,1.68s0.13,1.61,0.21,2.5
			c-0.2,0-0.36,0-0.5,0s-0.3,0-0.5,0c-2.44,0-4.98,0.27-7.6,0.81c-2.62,0.54-4.88,1.34-6.78,2.42c-2.46,1.41-4.36,3.21-5.69,5.41
			s-1.99,4.57-1.99,7.1c0,2.64,0.6,5.03,1.79,7.19c1.19,2.16,3.08,3.97,5.66,5.43c2.11,1.21,4.47,2.09,7.08,2.64
			s5.21,0.82,7.79,0.82c0.12,0,0.3,0,0.56,0C339.44,214.6,339.72,214.59,340.01,214.57z"/>
		<path class="st1" d="M352.14,218.17h-4.63c0.02-0.23,0.04-3.09,0.07-8.57s0.04-10.02,0.04-13.64c0-2.32,0-5.26-0.01-8.8
			c-0.01-3.54-0.04-7.52-0.1-11.94h4.63c-0.04,3.01-0.07,6.49-0.09,10.44c-0.02,3.96-0.03,7.29-0.03,10
			c0,5.92,0.02,11.09,0.06,15.53C352.12,215.64,352.14,217.96,352.14,218.17z"/>
		<path class="st1" d="M386.04,202.27h-21.18c0.02,2.07,0.46,3.97,1.32,5.7c0.86,1.73,2.18,3.16,3.96,4.29
			c1.13,0.72,2.42,1.26,3.87,1.63c1.45,0.36,3.18,0.54,5.21,0.54c1.11,0,2.13-0.03,3.06-0.09c0.93-0.06,1.5-0.1,1.71-0.12l-0.53,3.9
			c-0.16,0.02-0.67,0.05-1.55,0.1s-1.92,0.07-3.11,0.07c-3.12,0-5.84-0.41-8.16-1.22s-4.21-1.93-5.7-3.35
			c-1.27-1.19-2.35-2.71-3.24-4.57c-0.89-1.86-1.33-3.92-1.33-6.18c0-2.23,0.33-4.24,1-6.04c0.66-1.8,1.66-3.47,2.99-5.01
			c1.15-1.33,2.58-2.35,4.29-3.08c1.71-0.72,3.48-1.08,5.32-1.08c1.82,0,3.43,0.27,4.83,0.82s2.63,1.38,3.66,2.49
			c1.15,1.25,2.03,2.79,2.64,4.61C385.7,197.52,386.02,199.71,386.04,202.27z M381.5,198.98c-0.31-2.42-1.14-4.32-2.48-5.7
			c-1.34-1.38-3.1-2.07-5.29-2.07c-2.19,0-4.01,0.7-5.48,2.09s-2.48,3.29-3.05,5.67H381.5z"/>
		<path class="st1" d="M414.13,201.48c0,4.84-0.01,8.79-0.03,11.84c-0.02,3.05-0.03,4.69-0.03,4.92c-0.2,0.02-1.1,0.09-2.72,0.22
			c-1.62,0.13-3.71,0.19-6.27,0.19c-1.6,0-3.21-0.15-4.83-0.44c-1.62-0.29-3.02-0.71-4.19-1.26c-1.56-0.72-2.83-1.71-3.79-2.96
			s-1.45-2.75-1.45-4.51c0-1.86,0.57-3.46,1.71-4.82s2.73-2.46,4.76-3.3c1.27-0.53,2.96-1,5.08-1.42c2.12-0.42,4.54-0.74,7.25-0.95
			c-0.12-1.52-0.5-2.77-1.14-3.75s-1.59-1.72-2.84-2.23c-0.86-0.35-1.82-0.6-2.87-0.75s-2.29-0.22-3.69-0.22
			c-0.88,0-1.63,0.02-2.24,0.06s-1.45,0.09-2.5,0.15l0.47-3.9c0.29-0.02,0.87-0.05,1.74-0.1c0.87-0.05,2.05-0.07,3.56-0.07
			c2.3,0,4.36,0.24,6.17,0.72c1.81,0.48,3.31,1.25,4.5,2.33c1.11,1.02,1.95,2.27,2.52,3.76
			C413.85,196.48,414.13,198.64,414.13,201.48z M409.65,208.54c0-0.66,0-1.5,0-2.52s-0.01-2.19-0.03-3.52
			c-0.86,0.04-2.36,0.21-4.51,0.51c-2.15,0.3-3.96,0.74-5.42,1.3c-1.09,0.41-2.07,1.03-2.92,1.85s-1.27,1.84-1.27,3.05
			c0,1.33,0.36,2.4,1.08,3.21c0.72,0.81,1.71,1.43,2.96,1.86c0.96,0.33,2.02,0.57,3.18,0.72c1.16,0.15,2.39,0.22,3.68,0.22
			c0.39,0,0.87-0.01,1.44-0.03c0.57-0.02,1.16-0.04,1.79-0.06c0-0.14,0-0.78,0.01-1.93C409.65,212.04,409.65,210.49,409.65,208.54z"
			/>
		<path class="st1" d="M448.91,218.17h-4.63c0.02-0.55,0.04-2.35,0.07-5.42s0.04-4.96,0.04-5.68c0-1.02,0-2.51-0.01-4.5
			c-0.01-1.98-0.03-3.43-0.04-4.35c-0.06-2.25-0.49-3.86-1.29-4.83c-0.8-0.98-2.19-1.46-4.16-1.46c-1.19,0-2.67,0.35-4.42,1.05
			s-3.54,1.6-5.33,2.7c0,0.21-0.01,1.38-0.03,3.49c-0.02,2.11-0.03,4.03-0.03,5.77c0,2.27,0.02,5,0.07,8.2
			c0.05,3.2,0.07,4.88,0.07,5.04h-4.63c0-0.14,0.02-1.33,0.06-3.59c0.04-2.26,0.06-5.61,0.06-10.06c0-2.05,0-4.45-0.01-7.21
			c-0.01-2.75-0.04-5.68-0.1-8.79h4.57l-0.03,3.37l0.03,0.06c2.73-1.56,5.01-2.65,6.84-3.27c1.83-0.62,3.34-0.92,4.56-0.92
			c2.5,0,4.51,0.79,6.02,2.36c1.51,1.57,2.27,3.73,2.27,6.46c0,2.46-0.01,4.58-0.04,6.37s-0.04,3.24-0.04,4.35
			c0,1.78,0.02,4,0.07,6.67C448.88,216.64,448.91,218.04,448.91,218.17z"/>
		<path class="st1" d="M464.41,218.17h-4.63c0.02-0.23,0.04-3.09,0.07-8.57s0.04-10.02,0.04-13.64c0-2.32,0-5.26-0.01-8.8
			c-0.01-3.54-0.04-7.52-0.1-11.94h4.63c-0.04,3.01-0.07,6.49-0.09,10.44c-0.02,3.96-0.03,7.29-0.03,10
			c0,5.92,0.02,11.09,0.06,15.53C464.39,215.64,464.41,217.96,464.41,218.17z"/>
		<path class="st1" d="M480.67,182.84h-5.16v-5.04h5.16V182.84z M480.4,218.17h-4.63c0.02-0.31,0.04-2.24,0.07-5.77
			s0.04-6.46,0.04-8.76c0-2.01,0-4.22-0.01-6.64c-0.01-2.41-0.04-5.24-0.1-8.48h4.63c-0.04,2.81-0.07,5.44-0.1,7.9
			s-0.04,4.63-0.04,6.55c0,4.55,0.02,8.2,0.07,10.96C480.38,216.68,480.4,218.1,480.4,218.17z"/>
		<path class="st1" d="M515.73,218.17h-4.63c0.02-0.55,0.04-2.35,0.07-5.42s0.04-4.96,0.04-5.68c0-1.02,0-2.51-0.01-4.5
			c-0.01-1.98-0.03-3.43-0.04-4.35c-0.06-2.25-0.49-3.86-1.29-4.83c-0.8-0.98-2.19-1.46-4.16-1.46c-1.19,0-2.67,0.35-4.42,1.05
			s-3.54,1.6-5.33,2.7c0,0.21-0.01,1.38-0.03,3.49c-0.02,2.11-0.03,4.03-0.03,5.77c0,2.27,0.02,5,0.07,8.2
			c0.05,3.2,0.07,4.88,0.07,5.04h-4.63c0-0.14,0.02-1.33,0.06-3.59c0.04-2.26,0.06-5.61,0.06-10.06c0-2.05,0-4.45-0.01-7.21
			c-0.01-2.75-0.04-5.68-0.1-8.79h4.57l-0.03,3.37l0.03,0.06c2.73-1.56,5.01-2.65,6.84-3.27c1.83-0.62,3.34-0.92,4.56-0.92
			c2.5,0,4.51,0.79,6.02,2.36c1.51,1.57,2.27,3.73,2.27,6.46c0,2.46-0.01,4.58-0.04,6.37s-0.04,3.24-0.04,4.35
			c0,1.78,0.02,4,0.07,6.67C515.71,216.64,515.73,218.04,515.73,218.17z"/>
		<path class="st1" d="M549.13,202.27h-21.18c0.02,2.07,0.46,3.97,1.32,5.7c0.86,1.73,2.18,3.16,3.96,4.29
			c1.13,0.72,2.42,1.26,3.87,1.63c1.45,0.36,3.18,0.54,5.21,0.54c1.11,0,2.13-0.03,3.06-0.09c0.93-0.06,1.5-0.1,1.71-0.12l-0.53,3.9
			c-0.16,0.02-0.67,0.05-1.55,0.1s-1.92,0.07-3.11,0.07c-3.12,0-5.84-0.41-8.16-1.22s-4.21-1.93-5.7-3.35
			c-1.27-1.19-2.35-2.71-3.24-4.57c-0.89-1.86-1.33-3.92-1.33-6.18c0-2.23,0.33-4.24,1-6.04c0.66-1.8,1.66-3.47,2.99-5.01
			c1.15-1.33,2.58-2.35,4.29-3.08c1.71-0.72,3.48-1.08,5.32-1.08c1.82,0,3.43,0.27,4.83,0.82s2.63,1.38,3.66,2.49
			c1.15,1.25,2.03,2.79,2.64,4.61C548.8,197.52,549.11,199.71,549.13,202.27z M544.59,198.98c-0.31-2.42-1.14-4.32-2.48-5.7
			c-1.34-1.38-3.1-2.07-5.29-2.07c-2.19,0-4.01,0.7-5.48,2.09s-2.48,3.29-3.05,5.67H544.59z"/>
		<path class="st1" d="M573.01,209.59c0,1.45-0.35,2.73-1.06,3.87s-1.62,2.05-2.76,2.75c-1.19,0.74-2.61,1.3-4.24,1.68
			c-1.63,0.38-3.44,0.57-5.41,0.57c-0.96,0-1.95-0.04-2.98-0.13c-1.03-0.09-1.61-0.14-1.75-0.16l-0.18-3.84
			c0.18,0.02,0.85,0.07,2.04,0.16c1.18,0.09,2.36,0.13,3.53,0.13c0.68,0,1.56-0.06,2.64-0.18c1.07-0.12,1.96-0.33,2.67-0.64
			c0.98-0.43,1.7-0.96,2.17-1.58s0.7-1.38,0.7-2.26c0-0.8-0.21-1.45-0.62-1.95s-0.98-0.98-1.7-1.45c-0.78-0.53-1.85-1.09-3.21-1.68
			c-1.36-0.6-2.5-1.17-3.41-1.71c-1.31-0.8-2.31-1.75-3-2.84c-0.69-1.09-1.04-2.36-1.04-3.81s0.4-2.74,1.19-3.9
			c0.79-1.15,1.85-2.08,3.18-2.78c1.15-0.62,2.43-1.04,3.83-1.25c1.4-0.21,2.75-0.31,4.07-0.31c1.19,0,2.17,0.02,2.93,0.06
			c0.76,0.04,1.2,0.06,1.32,0.06l0.32,3.9c-0.14,0-0.74-0.04-1.81-0.12s-2.24-0.12-3.51-0.12c-0.9,0-1.76,0.08-2.57,0.23
			c-0.81,0.16-1.5,0.38-2.07,0.67c-0.84,0.43-1.44,0.95-1.81,1.55s-0.54,1.19-0.54,1.76c0,0.78,0.25,1.46,0.76,2.02
			c0.51,0.57,1.11,1.04,1.79,1.44c0.8,0.47,1.9,1.03,3.29,1.67s2.4,1.16,3.02,1.55c1.37,0.86,2.41,1.82,3.13,2.87
			S573.01,208.14,573.01,209.59z"/>
		<path class="st1" d="M597.41,209.59c0,1.45-0.35,2.73-1.06,3.87s-1.62,2.05-2.76,2.75c-1.19,0.74-2.61,1.3-4.24,1.68
			c-1.63,0.38-3.44,0.57-5.41,0.57c-0.96,0-1.95-0.04-2.98-0.13c-1.03-0.09-1.61-0.14-1.75-0.16l-0.18-3.84
			c0.18,0.02,0.85,0.07,2.04,0.16c1.18,0.09,2.36,0.13,3.53,0.13c0.68,0,1.56-0.06,2.64-0.18c1.07-0.12,1.96-0.33,2.67-0.64
			c0.98-0.43,1.7-0.96,2.17-1.58s0.7-1.38,0.7-2.26c0-0.8-0.21-1.45-0.62-1.95s-0.98-0.98-1.7-1.45c-0.78-0.53-1.85-1.09-3.21-1.68
			c-1.36-0.6-2.5-1.17-3.41-1.71c-1.31-0.8-2.31-1.75-3-2.84c-0.69-1.09-1.04-2.36-1.04-3.81s0.4-2.74,1.19-3.9
			c0.79-1.15,1.85-2.08,3.18-2.78c1.15-0.62,2.43-1.04,3.83-1.25c1.4-0.21,2.75-0.31,4.07-0.31c1.19,0,2.17,0.02,2.93,0.06
			c0.76,0.04,1.2,0.06,1.32,0.06l0.32,3.9c-0.14,0-0.74-0.04-1.81-0.12s-2.24-0.12-3.51-0.12c-0.9,0-1.76,0.08-2.57,0.23
			c-0.81,0.16-1.5,0.38-2.07,0.67c-0.84,0.43-1.44,0.95-1.81,1.55s-0.54,1.19-0.54,1.76c0,0.78,0.25,1.46,0.76,2.02
			c0.51,0.57,1.11,1.04,1.79,1.44c0.8,0.47,1.9,1.03,3.29,1.67s2.4,1.16,3.02,1.55c1.37,0.86,2.41,1.82,3.13,2.87
			S597.41,208.14,597.41,209.59z"/>
		<path class="st1" d="M625.89,182.84h-5.16v-5.04h5.16V182.84z M625.63,218.17H621c0.02-0.31,0.04-2.24,0.07-5.77
			s0.04-6.46,0.04-8.76c0-2.01,0-4.22-0.01-6.64c-0.01-2.41-0.04-5.24-0.1-8.48h4.63c-0.04,2.81-0.07,5.44-0.1,7.9
			s-0.04,4.63-0.04,6.55c0,4.55,0.02,8.2,0.07,10.96C625.6,216.68,625.63,218.1,625.63,218.17z"/>
		<path class="st1" d="M660.96,218.17h-4.63c0.02-0.55,0.04-2.35,0.07-5.42s0.04-4.96,0.04-5.68c0-1.02,0-2.51-0.01-4.5
			c-0.01-1.98-0.03-3.43-0.04-4.35c-0.06-2.25-0.49-3.86-1.29-4.83c-0.8-0.98-2.19-1.46-4.16-1.46c-1.19,0-2.67,0.35-4.42,1.05
			s-3.54,1.6-5.33,2.7c0,0.21-0.01,1.38-0.03,3.49c-0.02,2.11-0.03,4.03-0.03,5.77c0,2.27,0.02,5,0.07,8.2
			c0.05,3.2,0.07,4.88,0.07,5.04h-4.63c0-0.14,0.02-1.33,0.06-3.59c0.04-2.26,0.06-5.61,0.06-10.06c0-2.05,0-4.45-0.01-7.21
			c-0.01-2.75-0.04-5.68-0.1-8.79h4.57l-0.03,3.37l0.03,0.06c2.73-1.56,5.01-2.65,6.84-3.27c1.83-0.62,3.34-0.92,4.56-0.92
			c2.5,0,4.51,0.79,6.02,2.36c1.51,1.57,2.27,3.73,2.27,6.46c0,2.46-0.01,4.58-0.04,6.37s-0.04,3.24-0.04,4.35
			c0,1.78,0.02,4,0.07,6.67C660.93,216.64,660.96,218.04,660.96,218.17z"/>
		<path class="st1" d="M712.9,218.12c-0.18,0-1.48-0.01-3.9-0.03c-2.42-0.02-5.42-0.03-8.99-0.03c-2.48,0-4.75,0.01-6.81,0.03
			c-2.06,0.02-3.8,0.03-5.23,0.03c0.04-1.13,0.07-3.58,0.1-7.35s0.04-7.67,0.04-11.69c0-2.21-0.01-5.13-0.03-8.76
			c-0.02-3.63-0.06-7.39-0.12-11.28c1.39,0,3.12,0.01,5.2,0.03s4.22,0.03,6.43,0.03c3.73,0,6.77-0.01,9.11-0.03s3.61-0.03,3.81-0.03
			v4.07c-0.2,0-1.42-0.01-3.68-0.04s-5.06-0.04-8.42-0.04c-1.46,0-2.9,0-4.31,0.01s-2.52,0.01-3.34,0.01c0,2.21-0.02,4.41-0.06,6.61
			c-0.04,2.2-0.06,4.27-0.06,6.23c0.88,0,1.92,0,3.12,0.01s2.27,0.01,3.21,0.01c3.44,0,6.51-0.01,9.21-0.04
			c2.71-0.03,4.15-0.04,4.32-0.04v4.04c-0.16,0-1.77-0.01-4.83-0.04c-3.07-0.03-5.87-0.04-8.41-0.04c-0.94,0-2.06,0-3.35,0.01
			c-1.3,0.01-2.39,0.01-3.27,0.01c0,3.69,0.01,6.62,0.03,8.79c0.02,2.17,0.04,3.98,0.06,5.45c1.15,0.02,2.55,0.03,4.19,0.04
			s3.41,0.01,5.3,0.01c2.91,0,5.36-0.01,7.34-0.03c1.98-0.02,3.09-0.03,3.33-0.03V218.12z"/>
		<path class="st1" d="M747.71,189.65c-2.56,5.8-5.27,11.95-8.13,18.45c-2.86,6.5-4.34,9.85-4.44,10.07h-3.43
			c-0.1-0.23-1.52-3.41-4.28-9.53c-2.75-6.12-5.56-12.35-8.41-18.7l4.29-1.95l10.29,24.4h0.06l10-24.35L747.71,189.65z"/>
		<path class="st1" d="M777.56,202.27h-21.18c0.02,2.07,0.46,3.97,1.32,5.7c0.86,1.73,2.18,3.16,3.96,4.29
			c1.13,0.72,2.42,1.26,3.87,1.63c1.45,0.36,3.18,0.54,5.21,0.54c1.11,0,2.13-0.03,3.06-0.09c0.93-0.06,1.5-0.1,1.71-0.12l-0.53,3.9
			c-0.16,0.02-0.67,0.05-1.55,0.1s-1.92,0.07-3.11,0.07c-3.12,0-5.84-0.41-8.16-1.22s-4.21-1.93-5.7-3.35
			c-1.27-1.19-2.35-2.71-3.24-4.57c-0.89-1.86-1.33-3.92-1.33-6.18c0-2.23,0.33-4.24,1-6.04c0.66-1.8,1.66-3.47,2.99-5.01
			c1.15-1.33,2.58-2.35,4.29-3.08c1.71-0.72,3.48-1.08,5.32-1.08c1.82,0,3.43,0.27,4.83,0.82s2.63,1.38,3.66,2.49
			c1.15,1.25,2.03,2.79,2.64,4.61C777.23,197.52,777.54,199.71,777.56,202.27z M773.02,198.98c-0.31-2.42-1.14-4.32-2.48-5.7
			c-1.34-1.38-3.1-2.07-5.29-2.07c-2.19,0-4.01,0.7-5.48,2.09s-2.48,3.29-3.05,5.67H773.02z"/>
		<path class="st1" d="M802.43,191.98c-1.07,0.25-2.72,0.79-4.94,1.61c-2.22,0.82-4.77,1.91-7.66,3.28c0,0.21-0.01,1.2-0.03,2.94
			c-0.02,1.75-0.03,3.37-0.03,4.88c0,2.3,0.02,5.04,0.07,8.2c0.05,3.16,0.07,4.92,0.07,5.27h-4.63c0-0.33,0.02-1.43,0.06-3.28
			c0.04-1.86,0.06-5.03,0.06-9.52c0-1.82-0.01-4.36-0.03-7.62c-0.02-3.26-0.05-6.34-0.09-9.23h4.54v4.45l0.03,0.03
			c2.21-1.25,4.38-2.33,6.53-3.25c2.15-0.92,3.87-1.54,5.16-1.88L802.43,191.98z"/>
		<path class="st1" d="M833.46,189.73c-3.81,8.4-7.82,17.32-12.03,26.76c-4.21,9.44-6.45,14.47-6.72,15.07l-4.05-1.49l6.06-12.57
			c-0.16-0.39-1.38-3.24-3.67-8.55c-2.29-5.31-5.09-11.66-8.38-19.04l4.38-1.9c2.15,5.43,4.34,10.8,6.56,16.1s3.4,8.09,3.52,8.36
			h0.06c0.12-0.2,1.23-2.79,3.34-7.79s4.41-10.52,6.91-16.55L833.46,189.73z"/>
		<path class="st1" d="M884.76,206.63c0,1.95-0.5,3.71-1.51,5.27s-2.46,2.84-4.38,3.84c-1.7,0.88-3.56,1.52-5.59,1.92
			c-2.03,0.4-4.35,0.6-6.97,0.6c-1.93,0-3.92-0.03-5.96-0.1s-3.18-0.11-3.41-0.13c0.06-3.75,0.1-7.29,0.12-10.62
			c0.02-3.33,0.03-6.51,0.03-9.54c0-5.74-0.03-10.29-0.07-13.64c-0.05-3.35-0.07-5.09-0.07-5.23c0.27-0.02,1.35-0.07,3.23-0.15
			c1.88-0.08,3.71-0.12,5.49-0.12c2.01,0,3.86,0.13,5.56,0.4s3.13,0.63,4.3,1.1c1.78,0.7,3.17,1.71,4.18,3.03
			c1.01,1.32,1.52,2.93,1.52,4.85c0,2.01-0.64,3.79-1.91,5.35s-2.73,2.61-4.36,3.18v0.29c1.34,0.12,2.65,0.43,3.91,0.95
			c1.27,0.52,2.38,1.25,3.33,2.21c0.84,0.84,1.47,1.77,1.9,2.78C884.54,203.9,884.76,205.15,884.76,206.63z M879.78,206.78
			c0-1-0.18-1.89-0.53-2.68s-0.88-1.55-1.58-2.27c-0.66-0.66-1.58-1.2-2.74-1.61c-1.16-0.41-2.43-0.62-3.79-0.62
			c-1.09,0-1.98,0.01-2.65,0.03s-1.12,0.03-1.33,0.03l-0.47-3.52c1.45-0.04,2.72-0.21,3.82-0.51c1.1-0.3,2.08-0.76,2.94-1.36
			c0.82-0.59,1.49-1.33,2.02-2.24s0.79-1.93,0.79-3.06c0-1.19-0.29-2.22-0.88-3.09c-0.58-0.87-1.38-1.56-2.4-2.07
			c-0.86-0.41-1.91-0.72-3.16-0.92s-2.58-0.31-4.01-0.31c-0.92,0-1.76,0.01-2.53,0.04c-0.77,0.03-1.26,0.04-1.48,0.04
			c-0.06,2.85-0.09,5.88-0.1,9.08c-0.01,3.2-0.01,5.53-0.01,6.97c0,3.36,0.01,6.73,0.04,10.12s0.04,5.2,0.04,5.43
			c0.39,0.02,0.91,0.04,1.56,0.07s1.28,0.04,1.89,0.04c2.24,0,4.32-0.12,6.24-0.35s3.54-0.72,4.87-1.46
			c1.09-0.61,1.94-1.4,2.53-2.37S879.78,208.09,879.78,206.78z"/>
		<path class="st1" d="M917.95,218.17h-4.48v-3.4l-0.03-0.03c-1.37,0.9-3.07,1.82-5.11,2.77c-2.04,0.95-4.05,1.42-6.02,1.42
			c-2.7,0-4.8-0.8-6.33-2.4s-2.29-3.85-2.29-6.74c0-1.56,0.01-3.42,0.04-5.58s0.04-3.73,0.04-4.7c0-1.78-0.03-3.97-0.07-6.58
			c-0.05-2.61-0.07-4.08-0.07-4.41h4.63c0,0.25-0.02,1.66-0.06,4.22c-0.04,2.56-0.06,4.6-0.06,6.12c0,1.35,0.01,3.03,0.03,5.04
			c0.02,2.01,0.03,3.44,0.03,4.28c0.04,2.3,0.44,3.99,1.2,5.07s1.99,1.61,3.69,1.61c1.74,0,3.65-0.47,5.73-1.41s3.61-1.76,4.58-2.46
			c0-0.23,0.01-1.31,0.03-3.24c0.02-1.92,0.03-4.32,0.03-7.19c0-2.05-0.03-4.51-0.07-7.37c-0.05-2.86-0.07-4.42-0.07-4.67h4.63
			c0,0.33-0.02,1.43-0.06,3.3c-0.04,1.87-0.06,5.04-0.06,9.54c0,2.52,0.01,4.73,0.03,6.64C917.88,209.9,917.91,213.29,917.95,218.17
			z"/>
		<path class="st1" d="M953.99,203.1c0,3.2-0.79,5.95-2.36,8.25c-1.57,2.3-3.7,4.02-6.37,5.15c-1.74,0.74-3.72,1.28-5.95,1.62
			c-2.23,0.34-4.9,0.51-8.03,0.51c-0.43,0-0.87,0-1.32,0c-0.45,0-0.88,0-1.29,0c0.02-1.5,0.04-4.29,0.07-8.37s0.04-8.99,0.04-14.73
			c0-3.51-0.01-6.92-0.03-10.22c-0.02-3.3-0.05-6.67-0.09-10.1h4.63l-0.09,13.51c4,0.04,7.21,0.4,9.62,1.07
			c2.41,0.67,4.42,1.59,6.02,2.74c1.66,1.19,2.93,2.68,3.81,4.46S953.99,200.82,953.99,203.1z M949.3,203.22
			c0-2.36-0.67-4.34-2.01-5.94c-1.34-1.6-3.06-2.76-5.17-3.48c-1.09-0.37-2.28-0.66-3.54-0.86c-1.27-0.21-2.58-0.31-3.93-0.31
			c-0.25,0-0.51,0-0.78,0s-0.48,0-0.66,0c0,0.43,0,1.98-0.01,4.67c-0.01,2.68-0.01,4.89-0.01,6.63c0,3.26,0.01,5.56,0.03,6.91
			c0.02,1.35,0.03,2.71,0.03,4.1c2.15,0,4.11-0.16,5.89-0.48c1.78-0.32,3.31-0.82,4.6-1.51c1.88-1,3.27-2.31,4.19-3.94
			C948.84,207.37,949.3,205.44,949.3,203.22z"/>
		<path class="st1" d="M987.21,203.1c0,3.2-0.79,5.95-2.36,8.25c-1.57,2.3-3.7,4.02-6.37,5.15c-1.74,0.74-3.72,1.28-5.95,1.62
			c-2.23,0.34-4.9,0.51-8.03,0.51c-0.43,0-0.87,0-1.32,0c-0.45,0-0.88,0-1.29,0c0.02-1.5,0.04-4.29,0.07-8.37s0.04-8.99,0.04-14.73
			c0-3.51-0.01-6.92-0.03-10.22c-0.02-3.3-0.05-6.67-0.09-10.1h4.63l-0.09,13.51c4,0.04,7.21,0.4,9.62,1.07
			c2.41,0.67,4.42,1.59,6.02,2.74c1.66,1.19,2.93,2.68,3.81,4.46S987.21,200.82,987.21,203.1z M982.52,203.22
			c0-2.36-0.67-4.34-2.01-5.94c-1.34-1.6-3.06-2.76-5.17-3.48c-1.09-0.37-2.28-0.66-3.54-0.86c-1.27-0.21-2.58-0.31-3.93-0.31
			c-0.25,0-0.51,0-0.78,0s-0.48,0-0.66,0c0,0.43,0,1.98-0.01,4.67c-0.01,2.68-0.01,4.89-0.01,6.63c0,3.26,0.01,5.56,0.03,6.91
			c0.02,1.35,0.03,2.71,0.03,4.1c2.15,0,4.11-0.16,5.89-0.48c1.78-0.32,3.31-0.82,4.6-1.51c1.88-1,3.27-2.31,4.19-3.94
			C982.06,207.37,982.52,205.44,982.52,203.22z"/>
		<path class="st1" d="M1000.07,218.17h-4.63c0.02-0.23,0.04-3.09,0.07-8.57s0.04-10.02,0.04-13.64c0-2.32,0-5.26-0.01-8.8
			c-0.01-3.54-0.04-7.52-0.1-11.94h4.63c-0.04,3.01-0.07,6.49-0.09,10.44c-0.02,3.96-0.03,7.29-0.03,10
			c0,5.92,0.02,11.09,0.06,15.53C1000.05,215.64,1000.07,217.96,1000.07,218.17z"/>
		<path class="st1" d="M1033.97,202.27h-21.18c0.02,2.07,0.46,3.97,1.32,5.7c0.86,1.73,2.18,3.16,3.96,4.29
			c1.13,0.72,2.42,1.26,3.87,1.63c1.45,0.36,3.18,0.54,5.21,0.54c1.11,0,2.13-0.03,3.06-0.09c0.93-0.06,1.5-0.1,1.71-0.12l-0.53,3.9
			c-0.16,0.02-0.67,0.05-1.55,0.1s-1.92,0.07-3.11,0.07c-3.13,0-5.84-0.41-8.16-1.22s-4.21-1.93-5.7-3.35
			c-1.27-1.19-2.35-2.71-3.24-4.57c-0.89-1.86-1.33-3.92-1.33-6.18c0-2.23,0.33-4.24,1-6.04c0.66-1.8,1.66-3.47,2.99-5.01
			c1.15-1.33,2.58-2.35,4.29-3.08c1.71-0.72,3.48-1.08,5.32-1.08c1.82,0,3.43,0.27,4.83,0.82s2.63,1.38,3.66,2.49
			c1.15,1.25,2.03,2.79,2.64,4.61C1033.63,197.52,1033.95,199.71,1033.97,202.27z M1029.43,198.98c-0.31-2.42-1.14-4.32-2.48-5.7
			c-1.34-1.38-3.1-2.07-5.29-2.07c-2.19,0-4.01,0.7-5.48,2.09s-2.48,3.29-3.05,5.67H1029.43z"/>
	</g>
</g>
</svg>
