<?xml version="1.0" encoding="utf-8"?>
<!-- Generator: Adobe Illustrator 24.1.0, SVG Export Plug-In . SVG Version: 6.00 Build 0)  -->
<svg version="1.1" id="圖層_1" xmlns="http://www.w3.org/2000/svg" xmlns:xlink="http://www.w3.org/1999/xlink" x="0px" y="0px"
	 viewBox="0 0 603.88 547.08" style="enable-background:new 0 0 603.88 547.08;" xml:space="preserve">
<style type="text/css">
	.st0{fill:#84827C;}
</style>
<g>
	<path class="st0" d="M12.06,37.43c0-13.3,10.7-24,24-24h45.5c22,0,41.5,12.8,50.6,32h411c26.3,0,45.5,25,38.6,50.4l-41,152.3
		c-8.5,31.4-37,53.3-69.5,53.3h-288.5l5.4,28.5c2.2,11.3,12.1,19.5,23.6,19.5h288.3c13.3,0,24,10.7,24,24s-10.7,24-24,24h-288.3
		c-34.6,0-64.3-24.6-70.7-58.5l-51.6-271c-0.7-3.8-4-6.5-7.9-6.5h-45.5C22.76,61.43,12.06,50.73,12.06,37.43z M140.06,477.43
		c0-26.51,21.49-48,48-48s48,21.49,48,48s-21.49,48-48,48S140.06,503.94,140.06,477.43L140.06,477.43z M476.06,429.43
		c26.51,0,48,21.49,48,48s-21.49,48-48,48l0,0c-26.51,0-48-21.49-48-48S449.55,429.43,476.06,429.43z"/>
</g>
<g>
	<path class="st0" d="M1133.28-33.36c0-67.45,54.36-122.19,121.66-122.81c0-0.88,0-1.76,0-2.64c-16.84-0.38-32.92,3.17-48.28,9.85
		c-53.83,23.42-84.87,81.32-72.83,140.36c8.51,41.71,32.65,71.87,71.25,90.03c15.71,7.39,32.42,10.93,49.86,10.62
		c0.01-0.86,0.02-1.73,0.03-2.59C1187.66,88.84,1133.28,34.1,1133.28-33.36z"/>
	<path class="st0" d="M1378.78-54.85c-8.53-46.77-36-78.8-80.09-96.37c-13.79-5.5-28.31-8.02-43.24-7.6
		c-0.14,0.86,0.17,1.79-0.04,2.64c0.23,0,0.46-0.01,0.7-0.01c67.84,0,122.83,54.99,122.83,122.83s-54.99,122.83-122.83,122.83
		c-0.21,0-0.42-0.01-0.63-0.01c0.06,0.85-0.15,1.74-0.03,2.59c5.43,0.3,10.81-0.18,16.18-0.91c31.14-4.27,57.35-18.06,77.89-41.75
		C1375.56,19.36,1385.91-15.74,1378.78-54.85z"/>
	<path class="st0" d="M1179.22-126.75c-37.33,32.82-51.33,74.34-39.64,122.44c11.54,47.48,42.74,77.24,90.31,89.35
		c6.07,1.55,13.05-1.74,16.49-7.6c-2.79-0.32-5.52-0.53-8.21-0.96c-23.44-3.79-44.06-13.52-60.89-30.33
		c-28.31-28.27-38.83-62.37-31.23-101.65c4.49-23.19,16.04-42.73,33.49-58.62c20.15-18.36,43.96-28.08,71.22-29.23
		c4.43-0.19,4.3-0.08,4.48,4.4c0.09,2.29-0.61,2.94-2.88,2.96c-12.37,0.11-24.26,2.71-35.78,7.15
		c-37.51,14.45-64.2,51.58-65.53,91.35c-0.86,25.72,6.38,48.92,22.68,68.88c19.93,24.42,45.9,37.3,77.44,38.87
		c1.92,0.1,3.02-0.56,4.12-2.05c5.24-7.07,8.8-14.93,10.63-23.48c5.21-24.4,9.29-49.03,14.01-73.53c0.89-4.61,0.79-4.57,5.48-4.57
		c1.6,0,2.18,0.25,1.83,2.07c-4.46,23.45-8.86,46.91-13.23,70.38c-3.53,18.97-12.18,34.91-27.57,46.89
		c-0.37,0.29-0.89,0.5-0.83,1.12c0.13,0.1,0.25,0.28,0.39,0.28c2.99,0.17,5.98,0.32,8.97,0.48l0,0c1.33-0.06,2.66-0.15,3.99-0.18
		c20.11-0.55,38.87-5.92,56.38-15.78c1.49-0.84,2.35-1.85,2.67-3.59c2.49-13.58,5.03-27.14,7.66-40.69
		c0.29-1.51,0.06-2.75-0.48-4.09c-7.39-18.09-14.76-36.19-22.14-54.29c-1.04-2.56-1.03-2.56,1.7-2.58c4.19-0.02,4.2-0.03,5.78,3.92
		c4.34,10.89,8.67,21.79,13.01,32.68c2.17,5.44,4.37,10.87,6.66,16.57c0.71-0.84,1.21-1.37,1.66-1.96
		c12.28-16.08,24.59-32.13,36.78-48.28c1.6-2.12,3.18-3.47,5.93-2.94c1.59,0.31,2-0.47,1.89-1.97c-0.26-3.48-0.23-7-0.62-10.47
		c-2.15-19.6-8.4-37.78-19.38-54.22c-16.39-24.54-38.73-41.13-66.99-49.67c-11.23-3.39-22.76-4.83-34.48-4.93
		c-3.74,0.21-7.49,0.29-11.22,0.64C1219.4-151.6,1197.53-142.84,1179.22-126.75z M1256.35-35.12c-0.19,1.17,0.47,2.46-0.51,3.52
		c0-1.17,0-2.34,0-3.51C1256.01-35.11,1256.18-35.11,1256.35-35.12z"/>
	<path class="st0" d="M1254.95-154.59c0-0.23,0-0.47,0-0.7c0.26-0.28,0.4-0.58,0.47-0.88c-0.16,0-0.31,0-0.47,0.01
		c0,0.29,0,0.58,0,0.88C1254.95-155.06,1254.95-154.83,1254.95-154.59z"/>
	<path class="st0" d="M1362.2,23.55c8.86-16.58,13.49-34.29,14.14-53.19c-1.01,0.28-1.28,0.94-1.67,1.44
		c-12.97,16.8-25.89,33.63-38.92,50.39c-2.09,2.69-3.7,5.4-4.04,8.88c-0.28,2.8-1.02,5.55-1.54,8.33
		c-1.59,8.48-3.18,16.96-4.9,26.12C1341.18,54,1353.31,40.19,1362.2,23.55z"/>
	<path class="st0" d="M1254.97,89.46c0.17,0,0.34,0.01,0.51,0.01c-0.03-0.5-0.16-0.99-0.5-1.46
		C1254.98,88.49,1254.98,88.97,1254.97,89.46z"/>
	<path class="st0" d="M1254.97,87.93c-0.01-0.04-0.02-0.07-0.02-0.07l0,0C1254.95,87.86,1254.96,87.89,1254.97,87.93z"/>
</g>
</svg>
