<?xml version="1.0" encoding="utf-8"?>
<!-- Generator: Adobe Illustrator 24.1.0, SVG Export Plug-In . SVG Version: 6.00 Build 0)  -->
<svg version="1.1" id="圖層_1" xmlns="http://www.w3.org/2000/svg" xmlns:xlink="http://www.w3.org/1999/xlink" x="0px" y="0px"
	 viewBox="0 0 603.88 547.08" style="enable-background:new 0 0 603.88 547.08;" xml:space="preserve">
<style type="text/css">
	.st0{fill:#84827C;}
</style>
<g>
	<path class="st0" d="M690.55,114.6c0-67.45,54.36-122.19,121.66-122.81c0-0.88,0-1.76,0-2.64c-16.84-0.38-32.92,3.17-48.28,9.85
		c-53.83,23.42-84.87,81.32-72.83,140.36c8.51,41.71,32.65,71.87,71.25,90.03c15.71,7.39,32.42,10.93,49.86,10.62
		c0.01-0.86,0.02-1.73,0.03-2.59C744.93,236.8,690.55,182.06,690.55,114.6z"/>
	<path class="st0" d="M936.05,93.11c-8.53-46.77-36-78.8-80.09-96.37c-13.79-5.5-28.31-8.02-43.24-7.6
		c-0.14,0.86,0.17,1.79-0.04,2.64c0.23,0,0.46-0.01,0.7-0.01c67.84,0,122.83,54.99,122.83,122.83s-54.99,122.83-122.83,122.83
		c-0.21,0-0.42-0.01-0.63-0.01c0.06,0.85-0.15,1.74-0.03,2.59c5.43,0.3,10.81-0.18,16.18-0.91c31.14-4.27,57.35-18.06,77.89-41.75
		C932.83,167.32,943.18,132.22,936.05,93.11z"/>
	<path class="st0" d="M736.49,21.21c-37.33,32.82-51.33,74.34-39.64,122.44c11.54,47.48,42.74,77.24,90.31,89.35
		c6.07,1.55,13.05-1.74,16.49-7.6c-2.79-0.32-5.52-0.53-8.21-0.96c-23.44-3.79-44.06-13.52-60.89-30.33
		c-28.31-28.27-38.83-62.37-31.23-101.65c4.49-23.19,16.04-42.73,33.49-58.62c20.15-18.36,43.96-28.08,71.22-29.23
		c4.43-0.19,4.3-0.08,4.48,4.4c0.09,2.29-0.61,2.94-2.88,2.96c-12.37,0.11-24.26,2.71-35.78,7.15
		c-37.51,14.45-64.2,51.58-65.53,91.35c-0.86,25.72,6.38,48.92,22.68,68.88c19.93,24.42,45.9,37.3,77.44,38.87
		c1.92,0.1,3.02-0.56,4.12-2.05c5.24-7.07,8.8-14.93,10.63-23.48c5.21-24.4,9.29-49.03,14.01-73.53c0.89-4.61,0.79-4.57,5.48-4.57
		c1.6,0,2.18,0.25,1.83,2.07c-4.46,23.45-8.86,46.91-13.23,70.38c-3.53,18.97-12.18,34.91-27.57,46.89
		c-0.37,0.29-0.89,0.5-0.83,1.12c0.13,0.1,0.25,0.28,0.39,0.28c2.99,0.17,5.98,0.32,8.97,0.48l0,0c1.33-0.06,2.66-0.15,3.99-0.18
		c20.11-0.55,38.87-5.92,56.38-15.78c1.49-0.84,2.35-1.85,2.67-3.59c2.49-13.58,5.03-27.14,7.66-40.69
		c0.29-1.51,0.06-2.75-0.48-4.09c-7.39-18.09-14.76-36.19-22.14-54.29c-1.04-2.56-1.03-2.56,1.7-2.58c4.19-0.02,4.2-0.03,5.78,3.92
		c4.34,10.89,8.67,21.79,13.01,32.68c2.17,5.44,4.37,10.87,6.66,16.57c0.71-0.84,1.21-1.37,1.66-1.96
		c12.28-16.08,24.59-32.13,36.78-48.28c1.6-2.12,3.18-3.47,5.93-2.94c1.59,0.31,2-0.47,1.89-1.97c-0.26-3.48-0.23-7-0.62-10.47
		c-2.15-19.6-8.4-37.78-19.38-54.22C897.34,23.4,875,6.81,846.74-1.73c-11.23-3.39-22.76-4.83-34.48-4.93
		c-3.74,0.21-7.49,0.29-11.22,0.64C776.67-3.64,754.8,5.12,736.49,21.21z M813.62,112.84c-0.19,1.17,0.47,2.46-0.51,3.52
		c0-1.17,0-2.34,0-3.51C813.28,112.85,813.45,112.85,813.62,112.84z"/>
	<path class="st0" d="M812.22-6.63c0-0.23,0-0.47,0-0.7c0.26-0.28,0.4-0.58,0.47-0.88c-0.16,0-0.31,0-0.47,0.01
		c0,0.29,0,0.58,0,0.88C812.22-7.1,812.22-6.87,812.22-6.63z"/>
	<path class="st0" d="M919.47,171.51c8.86-16.58,13.49-34.29,14.14-53.19c-1.01,0.28-1.28,0.94-1.67,1.44
		c-12.97,16.8-25.89,33.63-38.92,50.39c-2.09,2.69-3.7,5.4-4.04,8.88c-0.28,2.8-1.02,5.55-1.54,8.33
		c-1.59,8.48-3.18,16.96-4.9,26.12C898.45,201.96,910.58,188.15,919.47,171.51z"/>
	<path class="st0" d="M812.24,237.42c0.17,0,0.34,0.01,0.51,0.01c-0.03-0.5-0.16-0.99-0.5-1.46
		C812.25,236.45,812.25,236.93,812.24,237.42z"/>
	<path class="st0" d="M812.24,235.89c-0.01-0.04-0.02-0.07-0.02-0.07l0,0C812.22,235.82,812.23,235.85,812.24,235.89z"/>
</g>
<g>
	<path class="st0" d="M233.11,86.34l36.57,59.2h-1.37h-75.66c-23.22,0-42.03-17.9-42.03-40s18.81-40,42.03-40h2.31
		C210.62,65.54,225.23,73.44,233.11,86.34z M100.18,105.54c0,14.4,3.68,28,10.09,40H66.55c-18.6,0-33.63,14.3-33.63,32v64
		c0,17.7,15.03,32,33.63,32h470.78c18.6,0,33.63-14.3,33.63-32v-64c0-17.7-15.03-32-33.63-32h-43.72c6.41-12,10.09-25.6,10.09-40
		c0-48.6-41.4-88-92.47-88h-2.31c-33.52,0-64.63,16.9-81.65,44.4l-25.33,41.1l-25.33-41c-17.02-27.6-48.13-44.5-81.65-44.5h-2.31
		C141.58,17.54,100.18,56.94,100.18,105.54z M453.26,105.54c0,22.1-18.81,40-42.03,40h-75.66h-1.37l36.57-59.2
		c7.99-12.9,22.49-20.8,38.15-20.8h2.31C434.45,65.54,453.26,83.44,453.26,105.54z M66.55,305.54v176c0,26.5,22.59,48,50.44,48
		h151.32v-224H66.55z M335.57,529.54h151.32c27.85,0,50.44-21.5,50.44-48v-176H335.57V529.54z"/>
</g>
</svg>
